<?xml version="1.0" standalone="no"?>
<!DOCTYPE svg PUBLIC "-//W3C//DTD SVG 20010904//EN"
 "http://www.w3.org/TR/2001/REC-SVG-20010904/DTD/svg10.dtd">
<svg version="1.0" xmlns="http://www.w3.org/2000/svg"
 width="1373.000000pt" height="647.000000pt" viewBox="0 0 1373.000000 647.000000"
 preserveAspectRatio="xMidYMid meet">

<g transform="translate(0.000000,647.000000) scale(0.100000,-0.100000)"
fill="#000000" stroke="none">
<path d="M1579 6460 c-625 -40 -1189 -437 -1433 -1010 -83 -195 -122 -360
-136 -579 -13 -191 -13 -3081 0 -3272 14 -219 53 -384 136 -579 164 -386 488
-710 874 -874 195 -83 360 -122 579 -136 197 -13 10335 -13 10532 0 355 23
657 134 934 344 321 243 543 604 630 1021 30 148 35 376 35 1860 0 1484 -5
1712 -35 1860 -116 561 -479 1014 -985 1229 -195 83 -360 122 -579 136 -172
11 -10375 11 -10552 0z m1929 -1100 c730 -79 1348 -513 1673 -1175 148 -302
213 -563 226 -900 40 -1077 -714 -2014 -1767 -2196 -232 -40 -523 -36 -760 12
-636 127 -1179 550 -1471 1144 -148 302 -213 563 -226 900 -33 888 478 1703
1284 2052 327 141 699 199 1041 163z m3634 -1803 c119 -58 175 -173 166 -338
-8 -139 -58 -221 -171 -281 -37 -20 -56 -23 -167 -23 -105 1 -132 4 -171 22
-91 41 -147 119 -169 231 -30 151 20 300 123 368 67 44 111 54 227 51 92 -2
112 -6 162 -30z m728 16 c75 -24 153 -98 181 -171 24 -66 29 -198 10 -272 -26
-97 -100 -173 -199 -205 -76 -25 -239 -17 -302 14 -110 56 -161 140 -168 275
-5 106 9 177 47 238 60 94 152 137 292 138 55 0 106 -6 139 -17z m1363 3 c65
-19 101 -49 126 -101 40 -84 28 -95 -110 -95 -58 0 -69 3 -69 17 0 9 -10 27
-22 40 -39 41 -138 25 -138 -22 0 -20 37 -41 85 -50 133 -23 245 -79 277 -139
54 -100 7 -229 -106 -289 -36 -19 -57 -22 -171 -22 -117 0 -135 2 -179 24 -33
17 -57 38 -77 70 -29 45 -55 118 -46 128 3 2 47 7 99 10 l94 6 16 -42 c13 -32
25 -45 54 -57 90 -37 175 34 112 93 -13 12 -60 31 -107 43 -103 26 -170 59
-205 100 -32 39 -40 67 -34 130 8 76 61 134 148 161 43 13 204 10 253 -5z
m-2803 -18 c57 -30 82 -65 88 -126 5 -57 -13 -101 -58 -133 l-29 -22 38 -19
c102 -50 109 -228 13 -297 -47 -33 -106 -40 -329 -41 l-213 0 0 330 0 330 223
0 c211 0 225 -1 267 -22z m2320 -53 l0 -75 -100 0 -100 0 0 -255 0 -255 -110
0 -110 0 0 255 0 255 -100 0 -100 0 0 75 0 75 310 0 310 0 0 -75z m1330 0 l0
-75 -100 0 -100 0 0 -255 0 -255 -110 0 -110 0 0 255 0 255 -100 0 -100 0 0
75 0 75 310 0 310 0 0 -75z m613 46 c55 -34 80 -89 75 -166 -5 -74 -38 -127
-98 -154 l-38 -17 38 -32 c25 -21 56 -67 93 -139 l55 -108 12 30 c6 17 58 154
115 305 57 151 106 283 110 293 7 16 20 17 122 15 l115 -3 123 -327 123 -328
-112 0 -111 0 -15 53 -15 52 -112 3 -112 3 -17 -56 -18 -55 -220 2 -219 3 -62
113 c-68 125 -78 138 -117 147 l-28 7 0 -136 0 -136 -105 0 -105 0 0 331 0
330 243 -3 c234 -3 243 -4 280 -27z m1352 10 c22 -10 48 -27 57 -37 71 -81 61
-238 -21 -307 -43 -35 -89 -47 -193 -47 l-88 0 0 -125 0 -125 -105 0 -105 0 0
330 0 330 208 0 c179 0 212 -3 247 -19z m695 -56 l0 -75 -149 0 -148 0 -6 -42
c-3 -24 -4 -44 -2 -46 2 -2 20 1 40 8 20 7 66 10 101 8 78 -5 136 -41 172
-108 49 -92 11 -238 -77 -297 -51 -35 -107 -46 -206 -41 -77 3 -98 8 -139 32
-29 17 -59 46 -77 74 -47 74 -43 78 63 87 67 5 93 4 96 -5 9 -27 49 -60 79
-66 27 -5 37 -1 63 24 25 25 30 39 30 76 0 89 -82 131 -155 80 -28 -20 -36
-20 -105 -11 -41 5 -76 11 -77 12 -3 1 43 299 53 343 l4 22 220 0 220 0 0 -75z"/>
<path d="M3082 4519 c-49 -16 -193 -107 -640 -406 -317 -212 -592 -400 -610
-417 -95 -88 -95 -196 -1 -292 l41 -42 -41 -40 c-96 -95 -96 -204 -1 -297 l39
-38 -40 -44 c-22 -24 -47 -60 -55 -78 -30 -72 -9 -159 50 -214 14 -13 184
-131 378 -262 927 -625 872 -594 1048 -594 96 1 111 4 178 33 41 17 214 127
395 248 177 120 426 287 552 372 127 86 247 169 269 185 43 34 86 115 86 162
0 44 -44 130 -79 156 -17 12 -31 27 -31 31 0 5 16 23 36 40 92 81 96 194 8
288 -24 26 -44 51 -44 57 0 5 13 19 30 31 32 24 63 78 74 129 10 43 -8 101
-43 144 -26 31 -728 511 -1098 750 -156 101 -183 111 -323 115 -96 3 -125 1
-178 -17z m165 -544 c135 -40 213 -148 169 -234 l-15 -28 67 18 c79 22 138 24
207 5 90 -23 170 -79 201 -137 20 -39 18 -103 -6 -148 -27 -54 -81 -98 -285
-235 -156 -104 -180 -117 -198 -107 -46 23 -831 557 -834 567 -6 18 375 267
447 291 78 26 175 29 247 8z"/>
<path d="M3060 3871 c-64 -20 -308 -178 -294 -190 19 -16 236 -162 249 -167
14 -6 175 97 228 145 68 61 73 114 18 164 -56 50 -133 68 -201 48z"/>
<path d="M3455 3636 c-22 -7 -51 -18 -65 -25 -42 -22 -260 -166 -260 -172 0
-3 65 -50 144 -104 l144 -97 122 83 c151 103 190 144 190 198 0 34 -6 45 -41
74 -62 53 -150 70 -234 43z"/>
<path d="M6920 3427 c-69 -24 -105 -133 -82 -246 13 -62 40 -95 89 -111 73
-25 144 19 163 101 15 63 8 170 -14 204 -34 52 -97 73 -156 52z"/>
<path d="M7695 3433 c-67 -18 -95 -71 -95 -177 0 -86 20 -147 55 -170 39 -26
95 -29 135 -9 52 27 70 72 70 171 0 92 -16 141 -54 166 -27 17 -82 27 -111 19z"/>
<path d="M6150 3390 l0 -60 49 0 c60 0 96 13 110 38 26 49 -19 82 -110 82
l-49 0 0 -60z"/>
<path d="M6150 3136 l0 -66 53 0 c61 0 117 14 129 32 13 21 9 65 -8 78 -8 8
-51 15 -95 18 l-79 5 0 -67z"/>
<path d="M10380 3379 l0 -72 71 6 c46 4 78 12 90 23 20 18 25 59 11 82 -12 17
-68 32 -124 32 l-48 0 0 -71z"/>
<path d="M11166 3380 c-2 -8 -18 -59 -34 -112 l-30 -98 69 0 c38 0 69 1 69 3
-3 29 -70 218 -74 207z"/>
<path d="M11800 3375 l0 -75 28 0 c89 0 139 48 110 106 -14 30 -41 41 -100 43
l-38 1 0 -75z"/>
</g>
</svg>
