<?xml version="1.0" standalone="no"?>
<!DOCTYPE svg PUBLIC "-//W3C//DTD SVG 20010904//EN"
 "http://www.w3.org/TR/2001/REC-SVG-20010904/DTD/svg10.dtd">
<svg version="1.0" xmlns="http://www.w3.org/2000/svg"
 width="1429.000000pt" height="647.000000pt" viewBox="0 0 1429.000000 647.000000"
 preserveAspectRatio="xMidYMid meet">

<g transform="translate(0.000000,647.000000) scale(0.100000,-0.100000)"
fill="#000000" stroke="none">
<path d="M1579 6460 c-625 -40 -1189 -437 -1433 -1010 -83 -195 -122 -360
-136 -579 -13 -191 -13 -3081 0 -3272 14 -219 53 -384 136 -579 164 -386 488
-710 874 -874 195 -83 360 -122 579 -136 197 -13 10335 -13 10532 0 355 23
657 134 934 344 321 243 543 604 630 1021 30 148 35 376 35 1860 0 1484 -5
1712 -35 1860 -116 561 -479 1014 -985 1229 -195 83 -360 122 -579 136 -172
11 -10375 11 -10552 0z m1981 -1104 c238 -32 437 -93 648 -196 437 -215 767
-545 982 -982 149 -304 220 -612 220 -958 0 -586 -223 -1127 -634 -1535 -407
-405 -915 -616 -1484 -615 -332 1 -617 66 -910 210 -437 215 -767 545 -982
982 -325 662 -290 1454 91 2084 176 292 445 560 731 730 245 145 518 241 788
278 138 18 418 19 550 2z m3355 -1171 c215 -44 360 -143 468 -317 47 -76 104
-205 94 -214 -3 -3 -106 -28 -229 -55 -123 -27 -230 -52 -239 -54 -11 -4 -20
9 -33 45 -40 112 -147 190 -272 198 -163 10 -286 -70 -344 -226 -48 -129 -48
-409 0 -566 28 -89 98 -164 178 -190 67 -22 186 -23 251 -1 95 31 167 123 206
260 10 33 18 61 20 63 3 4 469 -139 478 -147 10 -10 -38 -152 -79 -231 -91
-175 -249 -300 -443 -352 -99 -26 -340 -36 -478 -18 -316 39 -538 207 -653
494 -54 133 -65 209 -65 426 1 233 17 314 97 479 42 88 62 116 131 186 45 45
110 98 145 118 109 64 211 94 407 121 61 9 283 -3 360 -19z m1724 15 c343 -36
526 -192 575 -491 l6 -36 -237 -13 c-131 -7 -249 -13 -262 -14 -21 -1 -26 6
-39 54 -21 73 -88 141 -154 158 -115 29 -229 4 -268 -60 -27 -45 -25 -80 6
-118 35 -41 59 -50 269 -100 429 -102 597 -193 685 -373 135 -276 14 -606
-273 -747 -127 -62 -215 -81 -409 -87 -344 -12 -543 41 -684 181 -88 88 -155
216 -180 344 -9 46 -14 85 -12 87 5 5 429 35 490 35 26 0 38 -4 38 -14 0 -44
44 -147 80 -188 58 -66 123 -92 230 -92 101 1 141 16 193 73 40 45 54 96 38
141 -30 88 -92 124 -299 176 -335 85 -478 149 -584 262 -145 154 -158 388 -34
575 130 195 439 287 825 247z m1866 -10 c282 -52 436 -191 490 -445 7 -33 10
-63 6 -66 -3 -4 -105 -12 -226 -19 -121 -6 -235 -12 -254 -13 -32 -2 -34 0
-51 52 -40 119 -117 171 -255 171 -103 -1 -172 -45 -182 -118 -11 -84 38 -114
267 -167 428 -97 622 -200 708 -373 42 -86 55 -158 49 -272 -6 -115 -30 -186
-92 -280 -60 -90 -130 -151 -230 -201 -123 -60 -213 -79 -407 -86 -332 -11
-555 45 -683 174 -93 93 -153 207 -182 346 -9 47 -15 89 -12 92 6 5 419 35
490 35 35 0 37 -1 43 -43 15 -99 81 -191 166 -230 65 -31 208 -30 266 0 145
77 141 233 -8 309 -26 13 -126 44 -221 69 -313 80 -422 129 -538 245 -60 59
-81 88 -98 135 -48 127 -43 258 13 380 80 174 265 285 523 315 95 11 335 5
418 -10z m1610 10 c174 -19 295 -69 382 -156 93 -93 136 -223 115 -348 -19
-114 -71 -196 -175 -272 l-59 -44 29 -10 c15 -6 48 -18 72 -27 61 -23 155
-113 184 -176 48 -101 58 -201 32 -320 -37 -176 -145 -321 -297 -398 -121 -61
-192 -74 -418 -74 -163 0 -219 4 -275 18 -187 47 -328 160 -409 328 -25 52
-48 106 -51 121 -8 33 -23 29 240 63 110 14 212 28 226 31 24 5 27 2 33 -33 9
-46 51 -140 74 -166 69 -76 218 -82 300 -11 62 52 86 112 86 209 -1 202 -126
291 -338 241 l-58 -14 6 62 c3 33 8 104 11 156 9 148 5 140 78 140 77 0 133
24 174 75 77 92 59 223 -37 279 -40 24 -130 25 -182 3 -50 -21 -95 -86 -110
-158 -7 -33 -15 -59 -18 -59 -16 0 -455 81 -459 85 -8 9 21 89 56 157 122 233
406 340 788 298z"/>
<path d="M2580 4650 l0 -220 220 0 220 0 0 55 0 55 -150 0 -150 0 0 100 0 100
150 0 150 0 0 65 0 65 -220 0 -220 0 0 -220z"/>
<path d="M3070 4735 l0 -135 155 0 155 0 0 -35 0 -35 -156 0 -155 0 3 -52 3
-53 58 0 c31 1 129 2 217 3 l160 2 0 130 0 130 -160 0 -160 0 0 25 0 25 123 0
c67 0 139 3 160 6 l37 7 0 58 0 59 -220 0 -220 0 0 -135z"/>
<path d="M3560 4735 l0 -135 155 0 155 0 0 -35 0 -35 -156 0 -155 0 3 -52 3
-53 214 -3 c118 -1 217 1 221 5 3 5 4 65 2 136 l-4 127 -159 0 -159 0 0 25 0
25 159 0 c88 0 162 3 164 8 3 4 2 33 0 65 l-5 57 -219 0 -219 0 0 -135z"/>
<path d="M2119 4235 c-3 -2 12 -194 33 -427 21 -233 47 -524 58 -648 11 -124
31 -353 45 -510 14 -157 34 -386 45 -510 11 -124 22 -245 25 -270 l6 -45 472
-134 c260 -74 479 -134 487 -134 11 -1 956 262 967 268 3 1 25 246 113 1235
22 250 52 577 65 725 13 149 27 312 31 363 l7 92 -1175 0 c-646 0 -1177 -2
-1179 -5z m2141 -202 c0 -49 -183 -2050 -188 -2054 -4 -4 -101 -32 -217 -64
-115 -31 -286 -78 -380 -104 l-170 -48 -3 147 -3 147 -322 83 c-177 45 -327
87 -333 91 -11 9 -36 204 -49 382 l-6 77 150 0 149 0 7 -77 c4 -43 10 -98 13
-123 l7 -45 155 -31 c85 -17 172 -33 193 -37 l37 -6 0 245 0 244 -365 0 c-341
0 -365 1 -366 18 0 9 -6 76 -14 147 -10 98 -10 133 -2 142 7 6 167 78 357 160
l344 148 -366 5 c-201 3 -369 8 -373 11 -5 6 -34 215 -35 256 0 10 91 13 408
15 l407 3 3 138 3 137 479 0 c264 0 480 -3 480 -7z"/>
</g>
</svg>
