<?xml version="1.0" standalone="no"?>
<!DOCTYPE svg PUBLIC "-//W3C//DTD SVG 20010904//EN"
 "http://www.w3.org/TR/2001/REC-SVG-20010904/DTD/svg10.dtd">
<svg version="1.0" xmlns="http://www.w3.org/2000/svg"
 width="1413.000000pt" height="647.000000pt" viewBox="0 0 1413.000000 647.000000"
 preserveAspectRatio="xMidYMid meet">

<g transform="translate(0.000000,647.000000) scale(0.100000,-0.100000)"
fill="#000000" stroke="none">
<path d="M1579 6460 c-625 -40 -1189 -437 -1433 -1010 -83 -195 -122 -360
-136 -579 -13 -191 -13 -3081 0 -3272 14 -219 53 -384 136 -579 164 -386 488
-710 874 -874 195 -83 360 -122 579 -136 197 -13 10335 -13 10532 0 355 23
657 134 934 344 321 243 543 604 630 1021 30 148 35 376 35 1860 0 1484 -5
1712 -35 1860 -116 561 -479 1014 -985 1229 -195 83 -360 122 -579 136 -172
11 -10375 11 -10552 0z m10641 -280 c184 -24 394 -98 550 -193 367 -224 615
-605 670 -1027 13 -101 13 -3349 0 -3450 -55 -422 -303 -803 -670 -1027 -156
-95 -366 -169 -550 -193 -103 -13 -10607 -13 -10710 0 -184 24 -394 98 -550
193 -367 224 -615 605 -670 1027 -13 101 -13 3349 0 3450 55 422 304 804 670
1027 152 93 369 170 542 192 92 12 10626 13 10718 1z"/>
<path d="M2062 4411 c2 -5 506 -516 1121 -1135 l1119 -1126 314 0 314 0 0 708
0 707 -398 397 c-427 427 -427 427 -552 447 -84 14 -1923 15 -1918 2z"/>
<path d="M1994 4300 c-271 -555 -517 -1083 -528 -1130 -17 -71 -6 -149 31
-229 21 -46 77 -107 315 -346 232 -233 284 -281 266 -245 l-23 45 -5 1005 -5
1005 -51 -105z"/>
</g>
</svg>
