<?xml version="1.0" standalone="no"?>
<!DOCTYPE svg PUBLIC "-//W3C//DTD SVG 20010904//EN"
 "http://www.w3.org/TR/2001/REC-SVG-20010904/DTD/svg10.dtd">
<svg version="1.0" xmlns="http://www.w3.org/2000/svg"
 width="1391.000000pt" height="647.000000pt" viewBox="0 0 1391.000000 647.000000"
 preserveAspectRatio="xMidYMid meet">

<g transform="translate(0.000000,647.000000) scale(0.100000,-0.100000)"
fill="#000000" stroke="none">
<path d="M1579 6460 c-625 -40 -1189 -437 -1433 -1010 -83 -195 -122 -360
-136 -579 -13 -191 -13 -3081 0 -3272 14 -219 53 -384 136 -579 164 -386 488
-710 874 -874 195 -83 360 -122 579 -136 197 -13 10335 -13 10532 0 355 23
657 134 934 344 321 243 543 604 630 1021 30 148 35 376 35 1860 0 1484 -5
1712 -35 1860 -116 561 -479 1014 -985 1229 -195 83 -360 122 -579 136 -172
11 -10375 11 -10552 0z m1981 -1104 c561 -75 1072 -373 1410 -822 233 -309
377 -662 425 -1044 22 -166 16 -482 -10 -630 -93 -524 -351 -981 -734 -1301
-299 -251 -629 -405 -1011 -474 -127 -23 -435 -31 -571 -16 -574 66 -1104 368
-1449 827 -233 309 -377 662 -425 1044 -22 166 -16 482 10 630 108 604 426
1105 914 1439 272 186 567 299 901 346 127 17 410 18 540 1z m2760 -1661 l0
-225 220 0 220 0 0 225 0 225 205 0 205 0 0 -655 0 -655 -205 0 -205 0 0 265
0 265 -220 0 -220 0 0 -265 0 -265 -205 0 -205 0 0 655 0 655 205 0 205 0 0
-225z m2260 60 l0 -165 -205 0 -205 0 0 -490 0 -490 -205 0 -205 0 0 490 0
490 -205 0 -205 0 0 165 0 165 615 0 615 0 0 -165z m720 158 c2 -35 199 -764
204 -753 3 8 46 175 96 370 50 195 93 363 96 373 5 16 27 17 275 17 l269 0 0
-655 0 -655 -170 0 -170 0 -2 475 -3 474 -121 -472 -121 -472 -154 -3 -155 -2
-121 472 -122 473 0 -472 -1 -473 -170 0 -170 0 0 655 0 655 270 0 c149 0 270
-3 270 -7z m1600 -483 l0 -490 318 -2 317 -3 3 -162 2 -163 -525 0 -525 0 0
655 0 655 205 0 205 0 0 -490z m1770 345 l0 -145 -290 0 -290 0 -5 -22 c-8
-40 -25 -141 -25 -154 0 -9 16 -7 58 8 80 30 230 36 308 13 114 -33 186 -85
244 -175 43 -67 61 -131 61 -220 1 -139 -45 -261 -133 -350 -86 -88 -173 -126
-322 -139 -246 -23 -446 41 -547 174 -40 53 -95 172 -84 183 6 6 289 41 343
41 26 1 32 -3 32 -19 0 -31 36 -95 66 -119 96 -76 232 -27 263 93 14 57 14
139 0 191 -36 133 -208 168 -316 63 l-32 -30 -153 22 c-84 12 -155 24 -157 26
-3 3 66 448 101 647 l10 57 434 0 434 0 0 -145z"/>
<path d="M2382 4458 l3 -213 73 -3 72 -3 0 71 0 70 65 0 65 0 0 -70 0 -70 70
0 70 0 0 215 0 215 -70 0 -70 0 0 -70 0 -70 -65 0 -65 0 0 70 0 70 -75 0 -75
0 2 -212z"/>
<path d="M2860 4600 l0 -70 65 0 65 0 0 -145 0 -145 70 0 70 0 0 145 0 145 65
0 65 0 0 70 0 70 -200 0 -200 0 0 -70z"/>
<path d="M3320 4455 l0 -215 70 0 70 0 0 108 0 107 52 -78 52 -78 45 73 46 73
3 -103 3 -103 72 3 72 3 3 213 2 212 -78 0 -78 0 -44 -76 c-37 -62 -47 -72
-55 -59 -5 9 -27 43 -47 76 l-37 59 -76 0 -75 0 0 -215z"/>
<path d="M3880 4455 l0 -215 170 0 170 0 0 70 0 70 -100 0 -100 0 0 145 0 145
-70 0 -70 0 0 -215z"/>
<path d="M2180 4034 c0 -10 200 -2247 203 -2268 2 -16 69 -38 447 -143 245
-69 456 -124 470 -124 24 1 907 244 914 252 2 2 47 495 100 1094 53 600 100
1114 103 1143 l6 52 -1122 0 c-616 0 -1121 -3 -1121 -6z m1825 -546 c-3 -51
-10 -118 -13 -148 l-7 -55 -539 3 -539 2 7 -92 c4 -51 9 -114 13 -140 l6 -48
513 0 514 0 0 -22 c-2 -71 -77 -848 -82 -854 -4 -4 -134 -42 -289 -86 l-281
-78 -291 80 c-161 45 -294 86 -297 91 -10 15 -43 426 -36 438 9 13 272 15 280
2 3 -4 8 -51 12 -104 4 -52 10 -100 14 -106 3 -6 73 -30 154 -52 l148 -40 157
41 156 42 3 51 c2 29 9 109 15 180 l13 127 -488 0 -488 0 0 23 c0 12 -16 195
-35 406 -19 212 -35 395 -35 408 l0 23 711 0 711 0 -7 -92z"/>
</g>
</svg>
