<?xml version="1.0" standalone="no"?>
<!DOCTYPE svg PUBLIC "-//W3C//DTD SVG 20010904//EN"
 "http://www.w3.org/TR/2001/REC-SVG-20010904/DTD/svg10.dtd">
<svg version="1.0" xmlns="http://www.w3.org/2000/svg"
 width="1391.000000pt" height="647.000000pt" viewBox="0 0 1391.000000 647.000000"
 preserveAspectRatio="xMidYMid meet">

<g transform="translate(0.000000,647.000000) scale(0.100000,-0.100000)"
fill="#000000" stroke="none">
<path d="M1579 6460 c-625 -40 -1189 -437 -1433 -1010 -83 -195 -122 -360
-136 -579 -13 -191 -13 -3081 0 -3272 14 -219 53 -384 136 -579 164 -386 488
-710 874 -874 195 -83 360 -122 579 -136 197 -13 10345 -13 10542 0 355 23
657 134 934 344 321 243 543 604 630 1021 30 148 35 376 35 1860 0 1484 -5
1712 -35 1860 -116 561 -479 1014 -985 1229 -195 83 -360 122 -579 136 -172
11 -10385 11 -10562 0z m10651 -280 c184 -24 394 -98 550 -193 367 -224 615
-605 670 -1027 13 -101 13 -3349 0 -3450 -55 -422 -303 -803 -670 -1027 -156
-95 -366 -169 -550 -193 -103 -13 -10617 -13 -10720 0 -184 24 -394 98 -550
193 -367 224 -615 605 -670 1027 -13 101 -13 3349 0 3450 55 422 304 804 670
1027 152 93 369 170 542 192 92 12 10636 13 10728 1z"/>
<path d="M3033 4830 c-87 -9 -112 -13 -183 -30 -25 -5 -55 -12 -67 -15 -16 -4
-23 -13 -23 -29 0 -19 -8 -26 -37 -35 l-38 -11 35 5 c19 3 79 12 133 20 164
25 396 35 579 24 424 -24 764 -129 930 -287 223 -212 96 -440 -332 -593 -58
-21 -100 -38 -93 -38 9 -1 13 -73 15 -300 l3 -299 -63 59 c-68 64 -118 94
-174 104 -20 4 -58 18 -84 31 -58 29 -76 30 -100 3 -18 -20 -18 -21 3 -57 13
-20 32 -57 43 -82 11 -25 30 -65 43 -90 15 -31 20 -54 16 -70 -12 -43 -10
-129 4 -163 29 -67 76 -73 87 -11 l5 29 21 -36 c19 -32 104 -109 104 -94 0 4
-15 25 -34 46 -19 22 -47 67 -62 100 -32 67 -44 65 -68 -11 l-13 -45 -12 28
c-14 36 -14 129 0 160 9 20 7 31 -14 63 -14 22 -31 57 -37 79 -7 22 -27 59
-43 83 -41 57 -27 70 39 37 27 -14 66 -28 87 -31 86 -15 209 -126 251 -228 18
-43 20 -58 6 -36 -6 10 -10 -78 -12 -260 -2 -215 -3 -248 -8 -150 l-6 125 -2
-121 c-1 -82 2 -124 10 -132 8 -8 47 -12 110 -12 98 0 98 0 98 -25 l0 -25
-112 -1 c-62 0 -107 -3 -100 -6 9 -3 12 -68 12 -275 0 -265 0 -269 20 -264 11
3 29 9 40 12 27 7 38 -37 17 -69 -27 -42 -269 -103 -505 -128 -151 -15 -555
-7 -681 15 -52 9 -99 15 -105 12 -6 -2 -3 -5 7 -5 12 -1 17 -9 17 -30 0 -28 3
-30 48 -37 26 -3 52 -10 57 -14 32 -24 386 -42 575 -30 332 21 560 75 785 185
123 60 211 126 267 200 73 96 69 22 66 1206 l-3 1064 -22 40 c-112 209 -419
361 -873 430 -122 19 -504 28 -627 15z m1159 -2295 c-2 -14 -6 -25 -7 -25 -1
0 -5 11 -7 25 -3 16 -1 25 7 25 8 0 10 -9 7 -25z m56 7 c13 11 14 11 10 -2 -6
-18 -30 -20 -34 -2 -1 7 0 8 3 2 3 -7 10 -7 21 2z"/>
<path d="M2658 4703 c7 -3 16 -2 19 1 4 3 -2 6 -13 5 -11 0 -14 -3 -6 -6z"/>
<path d="M3040 4673 c-370 -37 -644 -123 -786 -248 -246 -214 62 -459 686
-547 144 -20 555 -17 700 5 470 72 765 237 737 412 -28 170 -385 331 -831 374
-100 10 -423 13 -506 4z"/>
<path d="M3686 3304 c10 -14 21 -21 26 -16 14 14 -2 42 -23 42 -19 0 -19 -1
-3 -26z"/>
<path d="M2292 2808 c-8 -8 -12 -57 -12 -155 l0 -143 30 0 29 0 3 127 3 127
49 -110 c59 -131 70 -144 111 -144 41 0 52 13 111 144 l49 110 3 -127 3 -127
29 0 30 0 0 143 c0 98 -4 147 -12 155 -18 18 -82 15 -100 -5 -9 -10 -37 -67
-63 -126 -26 -59 -51 -104 -56 -100 -4 4 -26 53 -49 108 -23 55 -49 108 -58
118 -18 20 -82 23 -100 5z"/>
<path d="M2797 2724 c-4 -4 -7 -42 -7 -85 0 -56 4 -82 15 -93 23 -23 82 -36
163 -36 58 0 72 -3 72 -15 0 -25 -44 -35 -151 -35 -94 0 -99 -1 -99 -21 0 -20
4 -20 134 -17 181 4 176 -1 176 175 l0 133 -30 0 -29 0 -3 -87 -3 -88 -76 -3
c-102 -4 -111 5 -108 102 2 69 2 71 -22 74 -14 2 -28 0 -32 -4z"/>
</g>
</svg>
