<?xml version="1.0" standalone="no"?>
<!DOCTYPE svg PUBLIC "-//W3C//DTD SVG 20010904//EN"
 "http://www.w3.org/TR/2001/REC-SVG-20010904/DTD/svg10.dtd">
<svg version="1.0" xmlns="http://www.w3.org/2000/svg"
 width="1446.000000pt" height="654.000000pt" viewBox="0 0 1446.000000 654.000000"
 preserveAspectRatio="xMidYMid meet">

<g transform="translate(0.000000,654.000000) scale(0.100000,-0.100000)"
fill="#000000" stroke="none">
<path d="M1579 6530 c-625 -40 -1189 -437 -1433 -1010 -83 -195 -122 -360
-136 -579 -13 -191 -13 -3081 0 -3272 14 -219 53 -384 136 -579 164 -386 488
-710 874 -874 195 -83 360 -122 579 -136 197 -13 10345 -13 10542 0 355 23
657 134 934 344 321 243 543 604 630 1021 30 148 35 376 35 1860 0 1484 -5
1712 -35 1860 -116 561 -479 1014 -985 1229 -195 83 -360 122 -579 136 -172
11 -10385 11 -10562 0z m2381 -1114 c526 -83 995 -309 1351 -653 136 -132 217
-228 313 -372 223 -333 336 -706 336 -1106 0 -702 -366 -1344 -1001 -1759
-295 -192 -641 -318 -1039 -378 -133 -20 -577 -17 -720 5 -534 82 -1002 308
-1361 654 -136 132 -217 228 -313 372 -223 333 -336 706 -336 1106 0 702 366
1344 1001 1759 295 192 672 329 1034 376 44 5 94 12 110 14 75 10 525 -3 625
-18z m4044 -1100 c276 -82 409 -274 407 -586 0 -199 -44 -319 -159 -441 -48
-51 -82 -77 -145 -108 -134 -66 -177 -73 -479 -78 l-268 -5 0 -364 0 -364
-310 0 -310 0 0 986 0 985 603 -4 c540 -3 608 -5 661 -21z m1346 -321 l0 -345
325 0 325 0 0 345 0 345 310 0 310 0 0 -985 0 -985 -310 0 -310 0 0 395 0 395
-325 0 -325 0 0 -395 0 -395 -310 0 -310 0 0 985 0 985 310 0 310 0 0 -345z
m2934 321 c212 -63 345 -199 391 -401 37 -157 13 -387 -52 -508 -48 -89 -143
-180 -236 -226 -134 -66 -177 -73 -479 -78 l-268 -5 0 -364 0 -364 -310 0
-310 0 0 986 0 985 603 -4 c540 -3 608 -5 661 -21z"/>
<path d="M4253 4583 c-7 -3 -9 -20 -5 -45 l5 -41 -49 7 c-408 57 -918 53
-1274 -10 -744 -133 -1303 -461 -1495 -878 -54 -116 -69 -186 -69 -321 0 -78
6 -140 16 -177 9 -32 14 -58 12 -58 -8 0 -94 138 -95 152 0 7 -4 3 -10 -10 -6
-15 -5 -30 2 -43 5 -11 7 -24 4 -29 -3 -5 -1 -11 4 -14 4 -3 11 -23 15 -45 15
-93 119 -275 224 -392 56 -62 189 -176 270 -233 584 -407 1522 -576 2407 -435
118 19 357 76 477 115 544 175 948 472 1113 818 65 138 80 207 80 366 -1 165
-15 223 -90 375 -194 391 -677 706 -1320 861 -117 28 -205 42 -222 37z m-608
-263 c34 -13 46 -47 34 -98 -5 -23 -13 -72 -19 -109 -5 -38 -13 -85 -16 -105
l-7 -38 99 0 c111 0 211 -13 291 -36 75 -22 148 -91 173 -164 11 -30 19 -50
20 -44 0 6 7 53 16 105 13 77 20 98 41 117 l26 24 311 -5 c277 -3 318 -6 379
-24 213 -64 320 -253 287 -510 -22 -174 -84 -307 -195 -418 -71 -71 -123 -104
-215 -136 -55 -19 -94 -24 -245 -28 l-179 -6 -7 -40 c-38 -217 -53 -288 -66
-300 -11 -12 -47 -15 -173 -15 -208 0 -200 -10 -165 193 14 81 25 151 25 157
0 6 -55 10 -155 10 -152 0 -155 0 -170 24 -19 29 -25 -16 65 492 34 196 37
239 14 248 -28 11 -244 7 -244 -4 0 -10 -17 -112 -70 -415 -11 -60 -27 -153
-36 -205 -25 -147 -15 -140 -204 -140 -159 0 -160 0 -176 25 -15 23 -15 32 1
126 9 56 19 109 22 118 4 9 -4 3 -17 -14 -43 -55 -125 -136 -168 -167 -23 -16
-75 -41 -115 -55 -65 -23 -91 -26 -254 -31 l-182 -4 -6 -42 c-24 -160 -51
-284 -63 -298 -13 -16 -35 -18 -172 -18 -145 0 -158 2 -175 20 -22 25 -27 -9
65 510 10 58 28 159 39 225 12 66 30 170 41 230 11 61 29 166 41 235 38 225
39 229 64 246 21 14 65 15 337 12 292 -4 318 -6 383 -27 119 -39 194 -104 245
-213 31 -65 32 -64 49 37 84 495 93 538 121 552 30 15 266 18 305 3z m2142
-1132 c-3 -8 -6 -5 -6 6 -1 11 2 17 5 13 3 -3 4 -12 1 -19z m-247 -462 c0 -2
-8 -10 -17 -17 -16 -13 -17 -12 -4 4 13 16 21 21 21 13z m-1183 -582 c-3 -3
-12 -4 -19 -1 -8 3 -5 6 6 6 11 1 17 -2 13 -5z m-420 -60 c-3 -3 -12 -4 -19
-1 -8 3 -5 6 6 6 11 1 17 -2 13 -5z m-119 -11 c-10 -2 -28 -2 -40 0 -13 2 -5
4 17 4 22 1 32 -1 23 -4z"/>
<path d="M3360 4250 c0 -8 -184 -1069 -226 -1307 l-6 -33 130 0 c116 0 131 2
136 18 2 9 33 183 68 385 l63 368 157 -3 c144 -3 159 -5 179 -24 36 -37 33
-83 -25 -414 -31 -173 -56 -318 -56 -322 0 -5 60 -8 133 -8 l133 0 59 338 c67
381 71 445 33 519 -25 50 -77 92 -138 113 -21 8 -115 15 -232 17 -175 5 -198
7 -198 22 0 16 45 276 55 319 5 22 5 22 -130 22 -87 0 -135 -4 -135 -10z"/>
<path d="M2227 3868 c-48 -267 -227 -1300 -227 -1308 0 -6 48 -10 129 -10 115
0 130 2 135 18 2 9 17 90 33 180 l27 162 156 0 c251 1 358 30 468 126 190 166
265 493 158 689 -36 67 -103 124 -176 152 -38 15 -93 18 -371 21 l-327 3 -5
-33z m567 -203 c71 -34 96 -109 77 -234 -25 -159 -86 -250 -191 -284 -55 -18
-274 -35 -303 -24 -12 4 -13 14 -6 54 5 26 23 125 39 218 16 94 35 199 41 234
l12 63 146 -4 c115 -3 154 -8 185 -23z"/>
<path d="M2496 3548 c-8 -46 -25 -137 -36 -203 -11 -66 -23 -129 -26 -139 -6
-18 -1 -19 108 -14 156 7 204 35 248 148 30 75 34 218 7 248 -25 28 -91 42
-195 42 l-89 0 -17 -82z"/>
<path d="M4305 3888 c-2 -7 -11 -53 -19 -103 -27 -156 -206 -1179 -212 -1207
l-6 -28 131 0 c71 0 132 4 135 8 2 4 16 77 31 162 14 85 29 163 31 173 5 15
21 17 157 17 274 1 372 32 497 159 112 114 163 231 176 406 15 192 -63 336
-215 397 -53 22 -71 23 -379 26 -259 3 -323 1 -327 -10z m559 -223 c68 -34 81
-62 81 -173 -1 -182 -73 -310 -195 -347 -75 -22 -310 -34 -310 -14 0 18 89
530 95 548 4 10 34 12 148 9 116 -3 149 -7 181 -23z"/>
<path d="M4547 3419 c-21 -118 -38 -218 -37 -223 0 -5 49 -7 110 -4 100 5 116
9 157 34 53 33 87 91 103 175 11 58 13 149 4 174 -13 33 -65 49 -184 53 l-115
4 -38 -213z"/>
<path d="M7360 3716 l0 -216 58 0 c289 1 402 71 390 240 -5 76 -40 129 -105
161 -43 21 -65 24 -195 27 l-148 4 0 -216z"/>
<path d="M11640 3714 l0 -217 125 7 c150 8 213 26 265 72 48 43 64 88 58 164
-5 76 -40 129 -105 161 -43 21 -65 24 -195 27 l-148 4 0 -218z"/>
</g>
</svg>
